<svg width="32" height="22" viewBox="0 0 32 22" fill="none" xmlns="http://www.w3.org/2000/svg">
<path fill-rule="evenodd" clip-rule="evenodd" d="M0 14.1305C0 13.7141 0.187301 13.3147 0.520699 13.0203C0.854097 12.7258 1.30628 12.5604 1.77778 12.5604H23.1111C24.5256 12.5604 25.8822 12.0642 26.8823 11.1809C27.8825 10.2975 28.4444 9.09948 28.4444 7.85027V1.57005C28.4444 1.15365 28.6317 0.7543 28.9651 0.459858C29.2985 0.165416 29.7507 0 30.2222 0C30.6937 0 31.1459 0.165416 31.4793 0.459858C31.8127 0.7543 32 1.15365 32 1.57005V7.85027C32 9.93229 31.0635 11.929 29.3965 13.4012C27.7295 14.8735 25.4686 15.7005 23.1111 15.7005H1.77778C1.30628 15.7005 0.854097 15.5351 0.520699 15.2407C0.187301 14.9462 0 14.5469 0 14.1305Z" fill="#3B413C"/>
<path fill-rule="evenodd" clip-rule="evenodd" d="M0.520699 15.2407C0.187301 14.9462 0 14.5469 0 14.1305C0 13.7141 0.187301 13.3147 0.520699 13.0203L7.63205 6.7402C7.96734 6.4542 8.41641 6.29595 8.88254 6.29952C9.34867 6.3031 9.79456 6.46822 10.1242 6.75932C10.4538 7.05042 10.6408 7.44421 10.6448 7.85588C10.6489 8.26754 10.4697 8.66414 10.1458 8.96025L4.29161 14.1304L10.1458 19.3006C10.3156 19.4455 10.4511 19.6187 10.5442 19.8103C10.6374 20.0018 10.6864 20.2078 10.6885 20.4163C10.6905 20.6248 10.6456 20.8315 10.5562 21.0245C10.4668 21.2174 10.3348 21.3927 10.1679 21.5401C10.0009 21.6876 9.80245 21.8041 9.58397 21.8831C9.36549 21.962 9.13139 22.0018 8.89534 21.9999C8.65929 21.9981 8.42601 21.9548 8.20911 21.8725C7.99221 21.7902 7.79604 21.6706 7.63205 21.5207L0.520699 15.2407Z" fill="#3B413C"/>
</svg>
